<svg xmlns="http://www.w3.org/2000/svg" width="512" height="512" viewBox="0 0 512 512"><title>Topos</title><rect width="512" height="512" rx="115.20" ry="115.20" fill="#002fa7"/><path transform="matrix(0.256000 0 0 -0.256000 165.7600 317.1440)" d="M346 774V615H615V471H346V214Q346 170 362.0 147.5Q378 125 409 125Q441 125 461.0 152.0Q481 179 493 240H636Q630 114 570.5 47.5Q511 -19 405 -19Q298 -19 241.0 41.0Q184 101 184 213V471H69V615H184V774Z" fill="#f4f4f0"/><rect x="148.480" y="353.472" width="215.040" height="45.056" rx="13.312" ry="13.312" fill="#f4f4f0"/></svg>